<svg xmlns="http://www.w3.org/2000/svg" viewBox="0 0 32 32" fill="none" role="img" aria-label="SchoolMate favicon">
  <defs>
    <linearGradient id="sm-fav-grad" x1="4" y1="4" x2="28" y2="28" gradientUnits="userSpaceOnUse">
      <stop stop-color="#7C3AED"/>
      <stop offset="0.55" stop-color="#8B5CF6"/>
      <stop offset="1" stop-color="#A78BFA"/>
    </linearGradient>
  </defs>

  <rect width="32" height="32" rx="8" fill="#F5F3FF"/>
  <path d="M16 7L6 12.5L16 18L26 12.5L16 7Z" fill="url(#sm-fav-grad)"/>
  <path d="M16 18V21.5" stroke="#8B5CF6" stroke-width="1.6" stroke-linecap="round"/>
  <circle cx="16" cy="22.5" r="1.2" fill="#A78BFA"/>
  <path d="M16 19.5C13 18.2 10 18.2 7 19.5V25.5C10 24.2 13 24.2 16 25.5V19.5Z" fill="#8B5CF6" fill-opacity="0.2" stroke="#8B5CF6" stroke-width="1.2" stroke-linejoin="round"/>
  <path d="M16 19.5C19 18.2 22 18.2 25 19.5V25.5C22 24.2 19 24.2 16 25.5V19.5Z" fill="#8B5CF6" fill-opacity="0.2" stroke="#8B5CF6" stroke-width="1.2" stroke-linejoin="round"/>
  <circle cx="12" cy="22.5" r="1" fill="#8B5CF6"/>
  <circle cx="16" cy="24" r="1" fill="#8B5CF6"/>
  <circle cx="20" cy="22.5" r="1" fill="#8B5CF6"/>
</svg>
