<svg xmlns="http://www.w3.org/2000/svg" viewBox="0 0 64 64" fill="none" role="img" aria-label="SchoolMate">
  <defs>
    <linearGradient id="mark-grad" x1="12" y1="12" x2="52" y2="52" gradientUnits="userSpaceOnUse">
      <stop stop-color="#6D28D9"/>
      <stop offset="0.5" stop-color="#8B5CF6"/>
      <stop offset="1" stop-color="#A78BFA"/>
    </linearGradient>
    <linearGradient id="mark-soft" x1="22" y1="38" x2="42" y2="54" gradientUnits="userSpaceOnUse">
      <stop stop-color="#8B5CF6" stop-opacity="0.22"/>
      <stop offset="1" stop-color="#A78BFA" stop-opacity="0.38"/>
    </linearGradient>
  </defs>

  <rect width="64" height="64" rx="16" fill="#FFFFFF"/>
  <rect x="0.5" y="0.5" width="63" height="63" rx="15.5" stroke="#EDE9FE" stroke-width="1"/>

  <!-- Graduation cap -->
  <path d="M32 15L13 24.5L32 34L51 24.5L32 15Z" fill="url(#mark-grad)"/>
  <path d="M32 34V40" stroke="#7C3AED" stroke-width="2.2" stroke-linecap="round"/>
  <circle cx="32" cy="41.5" r="2.2" fill="#A78BFA"/>
  <path d="M19 26.5L32 32.5L45 26.5" stroke="#FFFFFF" stroke-width="1.5" stroke-linecap="round" stroke-linejoin="round" opacity="0.7"/>

  <!-- Open book -->
  <path d="M32 37.5C27 35.8 21.5 35.8 16.5 37.5V48.5C21.5 46.8 27 46.8 32 48.5V37.5Z" fill="url(#mark-soft)" stroke="url(#mark-grad)" stroke-width="1.8" stroke-linejoin="round"/>
  <path d="M32 37.5C37 35.8 42.5 35.8 47.5 37.5V48.5C42.5 46.8 37 46.8 32 48.5V37.5Z" fill="url(#mark-soft)" stroke="url(#mark-grad)" stroke-width="1.8" stroke-linejoin="round"/>
  <path d="M32 37.5V48.5" stroke="#7C3AED" stroke-width="1.6" stroke-linecap="round"/>

  <!-- Community nodes -->
  <circle cx="24.5" cy="43" r="2.2" fill="#7C3AED"/>
  <circle cx="32" cy="46" r="2.2" fill="#8B5CF6"/>
  <circle cx="39.5" cy="43" r="2.2" fill="#7C3AED"/>
  <path d="M24.5 43L32 46L39.5 43" stroke="#A78BFA" stroke-width="1.3" stroke-linecap="round"/>
</svg>
