<svg xmlns="http://www.w3.org/2000/svg" viewBox="0 0 320 64" fill="none" role="img" aria-label="SchoolMate logo">
  <defs>
    <linearGradient id="sm-logo-grad" x1="0" y1="0" x2="64" y2="64" gradientUnits="userSpaceOnUse">
      <stop stop-color="#7C3AED"/>
      <stop offset="0.5" stop-color="#8B5CF6"/>
      <stop offset="1" stop-color="#A78BFA"/>
    </linearGradient>
    <linearGradient id="sm-logo-soft" x1="12" y1="36" x2="52" y2="58" gradientUnits="userSpaceOnUse">
      <stop stop-color="#8B5CF6" stop-opacity="0.14"/>
      <stop offset="1" stop-color="#A78BFA" stop-opacity="0.28"/>
    </linearGradient>
  </defs>

  <!-- Icon -->
  <g transform="translate(0, 0)">
    <rect width="64" height="64" rx="16" fill="#F5F3FF"/>
    <path d="M32 16L14 25L32 34L50 25L32 16Z" fill="url(#sm-logo-grad)"/>
    <path d="M32 34V40" stroke="url(#sm-logo-grad)" stroke-width="2" stroke-linecap="round"/>
    <circle cx="32" cy="41.2" r="2" fill="#A78BFA"/>
    <path d="M32 36.5C27.8 34.8 23 34.8 18.8 36.5V47C23 45.3 27.8 45.3 32 47V36.5Z" fill="url(#sm-logo-soft)" stroke="url(#sm-logo-grad)" stroke-width="1.6" stroke-linejoin="round"/>
    <path d="M32 36.5C36.2 34.8 41 34.8 45.2 36.5V47C41 45.3 36.2 45.3 32 47V36.5Z" fill="url(#sm-logo-soft)" stroke="url(#sm-logo-grad)" stroke-width="1.6" stroke-linejoin="round"/>
    <path d="M32 36.5V47" stroke="url(#sm-logo-grad)" stroke-width="1.4" stroke-linecap="round"/>
    <circle cx="24.5" cy="41.5" r="1.8" fill="#8B5CF6"/>
    <circle cx="32" cy="44" r="1.8" fill="#8B5CF6"/>
    <circle cx="39.5" cy="41.5" r="1.8" fill="#8B5CF6"/>
    <path d="M24.5 41.5L32 44L39.5 41.5" stroke="#A78BFA" stroke-width="1.1" stroke-linecap="round"/>
  </g>

  <!-- Wordmark -->
  <text x="80" y="42" font-family="Inter, system-ui, -apple-system, Segoe UI, Roboto, sans-serif" font-size="28" fill="#1E1B4B">
    <tspan font-weight="700">School</tspan><tspan font-weight="500" dx="2">Mate</tspan>
  </text>
</svg>
