<svg xmlns="http://www.w3.org/2000/svg" viewBox="0 0 64 64" fill="none" role="img" aria-label="SchoolMate icon">
  <defs>
    <linearGradient id="sm-grad" x1="8" y1="8" x2="56" y2="56" gradientUnits="userSpaceOnUse">
      <stop stop-color="#7C3AED"/>
      <stop offset="0.5" stop-color="#8B5CF6"/>
      <stop offset="1" stop-color="#A78BFA"/>
    </linearGradient>
    <linearGradient id="sm-grad-soft" x1="20" y1="36" x2="44" y2="56" gradientUnits="userSpaceOnUse">
      <stop stop-color="#8B5CF6" stop-opacity="0.18"/>
      <stop offset="1" stop-color="#A78BFA" stop-opacity="0.32"/>
    </linearGradient>
  </defs>

  <!-- Graduation cap -->
  <path d="M32 14L10 24.5L32 35L54 24.5L32 14Z" fill="url(#sm-grad)"/>
  <path d="M32 35V42" stroke="url(#sm-grad)" stroke-width="2.2" stroke-linecap="round"/>
  <circle cx="32" cy="43.5" r="2.2" fill="#A78BFA"/>
  <path d="M18 26.5L32 33.5L46 26.5" stroke="#fff" stroke-width="1.4" stroke-linecap="round" stroke-linejoin="round" opacity="0.55"/>

  <!-- Open book -->
  <path d="M32 38.5C26.5 36.5 20 36.5 14.5 38.5V50.5C20 48.5 26.5 48.5 32 50.5V38.5Z" fill="url(#sm-grad-soft)" stroke="url(#sm-grad)" stroke-width="1.8" stroke-linejoin="round"/>
  <path d="M32 38.5C37.5 36.5 44 36.5 49.5 38.5V50.5C44 48.5 37.5 48.5 32 50.5V38.5Z" fill="url(#sm-grad-soft)" stroke="url(#sm-grad)" stroke-width="1.8" stroke-linejoin="round"/>
  <path d="M32 38.5V50.5" stroke="url(#sm-grad)" stroke-width="1.6" stroke-linecap="round"/>

  <!-- Community connection: students, teachers, parents -->
  <circle cx="24" cy="44.5" r="2.1" fill="#8B5CF6"/>
  <circle cx="32" cy="47.5" r="2.1" fill="#8B5CF6"/>
  <circle cx="40" cy="44.5" r="2.1" fill="#8B5CF6"/>
  <path d="M24 44.5L32 47.5L40 44.5" stroke="#A78BFA" stroke-width="1.2" stroke-linecap="round" stroke-linejoin="round"/>
</svg>
